<svg width="1075" height="286" viewBox="0 0 1075 286" fill="none" xmlns="http://www.w3.org/2000/svg">
<path d="M985.742 215.533C985.139 215.536 984.536 215.571 983.937 215.64C983.072 211.857 981.228 208.365 978.588 205.511C975.948 202.658 972.605 200.542 968.889 199.373C965.174 198.205 961.217 198.025 957.41 198.852C953.604 199.678 950.08 201.482 947.19 204.084C943.16 205.369 938.817 205.304 934.827 203.897C930.838 202.491 927.421 199.821 925.1 196.296C925.611 194.591 925.715 192.791 925.404 191.038C925.093 189.286 924.376 187.63 923.311 186.202C922.245 184.774 920.859 183.613 919.264 182.812C917.668 182.01 915.907 181.591 914.12 181.586C913.68 181.584 913.243 181.515 912.824 181.382L912.93 95.868V88.6275H922.08V105.225H924.017L935.152 75.7236L921.875 70.0684C920.701 69.5699 920.874 68.434 921.054 67.2163C921.153 66.5543 921.284 65.8025 921.35 65.3939L921.391 65.1569C921.941 61.0708 922.384 57.2136 922.638 53.4871C922.811 51.0354 922.901 48.5838 922.893 46.1321C922.881 42.5349 922.607 38.9432 922.072 35.3856C920.85 27.2337 918.404 19.3108 914.818 11.8824C912.644 7.64591 910.008 3.66101 906.957 0C906.924 0.0361018 906.894 0.0743351 906.866 0.114423C904.01 3.72653 900.654 7.77175 898.537 12.152C894.956 19.5823 892.511 27.5044 891.283 35.6553C889.839 45.2576 890.52 54.4513 891.989 65.3857L892.03 65.6228C892.104 66.0395 892.227 66.7914 892.325 67.4451C892.481 68.5402 892.637 69.5699 891.8 70.1338L878.769 75.6827L878.203 75.9197L889.347 105.152H891.808V88.4967H900.466V179.396C897.749 177.345 897.306 176.838 893.63 176.838C889.324 176.84 885.196 178.545 882.152 181.578C879.108 184.611 877.399 188.723 877.399 193.011C877.398 193.614 877.431 194.217 877.497 194.817C874.627 194.43 871.705 194.812 869.032 195.923C866.359 197.035 864.032 198.837 862.291 201.142C857.532 197.331 851.468 195.518 845.388 196.089C839.308 196.659 833.69 199.569 829.73 204.199C827.929 203.542 826.027 203.204 824.109 203.202C820.738 203.197 817.449 204.243 814.705 206.193C810.06 204.334 804.955 203.934 800.075 205.046C795.195 206.159 790.773 208.73 787.402 212.416C784.03 216.101 781.871 220.725 781.213 225.668C780.555 230.61 781.43 235.635 783.72 240.068C786.01 244.501 789.607 248.131 794.027 250.471C798.448 252.812 803.481 253.75 808.452 253.162C813.423 252.573 818.095 250.485 821.841 247.177C825.587 243.87 828.228 239.501 829.41 234.656L829.73 234.55C833.527 238.991 838.856 241.857 844.668 242.583C850.479 243.309 856.353 241.842 861.134 238.473C879.519 240.805 897.412 246.047 914.137 254C916.98 252.745 920.054 252.097 923.163 252.097C926.273 252.097 929.347 252.745 932.19 254C936.519 253.999 940.755 252.745 944.381 250.39C948.007 248.035 950.868 244.681 952.614 240.737C955.669 242.173 959.012 242.902 962.39 242.868C965.768 242.834 969.095 242.038 972.12 240.54C973.649 242.896 975.766 244.816 978.265 246.111C980.764 247.405 983.558 248.03 986.372 247.925C989.187 247.819 991.925 246.986 994.319 245.508C996.713 244.029 998.68 241.956 1000.03 239.492C1001.37 237.028 1002.05 234.258 1002 231.454C1001.94 228.649 1001.16 225.907 999.718 223.496C998.278 221.085 996.233 219.089 993.785 217.703C991.336 216.317 988.567 215.589 985.751 215.591L985.742 215.533ZM898.275 36.9384C898.277 34.6416 899.194 32.4395 900.825 30.8154C902.455 29.1913 904.667 28.2779 906.973 28.2758C909.233 28.3449 911.376 29.2875 912.95 30.9037C914.524 32.5199 915.404 34.6829 915.404 36.9343C915.404 39.1857 914.524 41.3485 912.95 42.9648C911.376 44.581 909.233 45.5236 906.973 45.5927V68.385V45.5927C904.668 45.5927 902.456 44.6811 900.825 43.0583C899.194 41.4356 898.277 39.2344 898.275 36.9384Z" fill="#59AFFF"/>
<path d="M1031 185.536C1016.39 182.989 1002.57 190.574 991.647 199.012C986.642 196.331 981.029 194.994 975.354 195.132C969.679 195.27 964.136 196.878 959.267 199.799C954.398 202.721 950.368 206.855 947.572 211.8C944.775 216.745 943.307 222.331 943.31 228.013C943.31 228.34 943.31 228.653 943.31 228.98C932.648 227.114 921.689 227.956 911.436 231.428C907.888 227.188 903.328 223.914 898.178 221.908C893.029 219.902 887.456 219.23 881.978 219.954C876.5 220.678 871.293 222.774 866.839 226.048C862.386 229.323 858.83 233.669 856.502 238.685C844.605 227.39 828.828 221.099 812.43 221.111C809.098 221.116 805.772 221.373 802.479 221.88C797.069 217.216 790.286 214.446 783.161 213.992C776.035 213.537 768.956 215.422 762.999 219.361C758.672 210.415 752.332 202.594 744.476 196.515C736.62 190.435 727.463 186.262 717.724 184.323C707.984 182.384 697.929 182.733 688.347 185.34C678.765 187.948 669.917 192.745 662.5 199.354C658.047 196.853 653.073 195.427 647.972 195.188C642.872 194.948 637.786 195.902 633.119 197.974C628.452 200.046 624.331 203.179 621.085 207.124C617.839 211.068 615.556 215.716 614.419 220.699C604.529 216.375 593.712 214.613 582.964 215.576C572.215 216.538 561.882 220.194 552.917 226.206C550.64 222.237 547.56 218.788 543.874 216.08C540.188 213.372 535.977 211.466 531.511 210.482C527.046 209.499 522.424 209.46 517.943 210.369C513.462 211.278 509.22 213.115 505.489 215.761C491.854 206.736 475.295 203.251 459.184 206.016C443.072 208.782 428.619 217.589 418.767 230.645C414.32 228.729 409.505 227.821 404.666 227.987C399.827 228.152 395.085 229.387 390.779 231.602C386.473 233.818 382.711 236.959 379.76 240.801C376.81 244.643 374.745 249.091 373.714 253.826C350.773 261.872 325.673 261.158 303.227 251.82C297.801 253.985 291.894 254.656 286.121 253.762C280.348 252.869 274.919 250.444 270.4 246.74C264.379 246.74 258.476 248.404 253.34 251.549C247.008 241.022 237.795 232.531 226.792 227.082C215.789 221.632 203.457 219.452 191.254 220.799C179.052 222.147 167.491 226.965 157.94 234.685C148.388 242.404 141.246 252.701 137.359 264.356C134.244 260.612 130.336 257.608 125.918 255.564C121.499 253.519 116.682 252.484 111.814 252.535C106.947 252.585 102.152 253.72 97.7767 255.855C93.4015 257.991 89.556 261.075 86.5195 264.883C76.1244 255.076 62.7595 249.018 48.5384 247.667C34.3174 246.317 20.0522 249.751 8 257.426V286H1060.57C1060.57 286 1106.26 198.628 1031 185.536Z" fill="#59AFFF"/>
<path d="M480.331 252.074C464.677 252.074 450.44 257.91 439.915 267.444C434.393 260.834 425.913 256.598 416.395 256.598C406.877 256.598 398.775 260.634 393.253 266.982C385.387 244.577 363.362 228.42 337.34 228.42C315.897 228.42 297.144 239.391 286.824 255.773C282.292 253.053 276.772 251.571 271.092 251.55C267.537 251.586 264.026 252.179 260.76 253.294C257.493 254.409 254.535 256.024 252.055 258.047C248.623 256.721 244.86 256.025 241.043 256.011C234.889 256.048 228.944 257.784 224.225 260.921C218.845 253.087 209.578 247.901 199.053 247.901C190.007 247.901 181.89 251.725 176.368 257.772C173.426 244.789 161.375 235.068 146.933 235.068C142.782 235.073 138.695 235.88 135.023 237.417C124.262 223.797 107.209 215 87.9994 215C76.1424 215.069 64.6741 218.368 55.512 224.347C50.6975 220.974 44.5158 219.089 38.0963 219.036C26.9264 219.036 17.1883 224.872 11.9809 233.519C-4.8369 247.976 0.96831 286 0.96831 286H512V260.909C502.98 255.24 491.833 252.13 480.331 252.074Z" fill="#59AFFF"/>
</svg>
