<svg width="460" height="187" viewBox="0 0 460 187" fill="none" xmlns="http://www.w3.org/2000/svg">
<path d="M431.547 156.897C417.484 156.897 404.692 162.075 395.236 170.535C390.275 164.67 382.656 160.911 374.105 160.911C365.554 160.911 358.274 164.492 353.313 170.125C346.246 150.244 326.458 135.908 303.079 135.908C283.814 135.908 266.966 145.643 257.693 160.179C253.621 157.765 248.663 156.45 243.559 156.431C240.365 156.464 237.211 156.99 234.276 157.979C231.342 158.968 228.684 160.402 226.456 162.197C223.373 161.02 219.991 160.402 216.562 160.39C211.033 160.423 205.692 161.964 201.452 164.747C196.618 157.795 188.293 153.194 178.837 153.194C170.71 153.194 163.416 156.587 158.455 161.953C155.812 150.433 144.985 141.807 132.01 141.807C128.281 141.812 124.609 142.527 121.31 143.891C111.642 131.806 96.3202 124 79.062 124C68.4092 124.061 58.1056 126.989 49.8741 132.294C45.5485 129.301 39.9947 127.628 34.2271 127.581C24.1917 127.581 15.4426 132.759 10.7641 140.432C-4.34566 153.26 0.869967 187 0.869967 187H460V164.736C451.897 159.706 441.881 156.946 431.547 156.897Z" fill="#59AFFF"/>
<path d="M431.009 158.68C430.564 158.682 430.12 158.708 429.678 158.758C429.039 155.973 427.679 153.402 425.732 151.302C423.785 149.201 421.319 147.643 418.579 146.783C415.839 145.923 412.92 145.79 410.113 146.399C407.305 147.007 404.706 148.335 402.575 150.251C399.602 151.197 396.399 151.149 393.456 150.113C390.514 149.078 387.994 147.112 386.282 144.517C386.658 143.262 386.735 141.936 386.506 140.646C386.277 139.356 385.748 138.137 384.962 137.086C384.176 136.034 383.154 135.18 381.977 134.59C380.801 134 379.502 133.691 378.184 133.687C377.859 133.686 377.537 133.635 377.228 133.537L377.306 70.58V65.2494H384.055V77.4689H385.483L393.696 55.7492L383.903 51.5858C383.038 51.2188 383.165 50.3825 383.298 49.486C383.371 48.9987 383.468 48.4452 383.516 48.1443L383.546 47.9698C383.952 44.9616 384.279 42.1218 384.466 39.3783C384.593 37.5733 384.66 35.7684 384.654 33.9634C384.645 31.315 384.443 28.6708 384.049 26.0516C383.147 20.05 381.343 14.217 378.698 8.74807C377.095 5.62907 375.15 2.69531 372.9 0C372.876 0.0265789 372.854 0.054727 372.833 0.0842403C370.727 2.74355 368.252 5.72172 366.69 8.94659C364.049 14.4169 362.245 20.2493 361.34 26.2502C360.275 33.3196 360.777 40.0882 361.861 48.1383L361.891 48.3128C361.945 48.6197 362.036 49.1732 362.109 49.6545C362.224 50.4607 362.339 51.2188 361.721 51.634L352.11 55.7191L351.693 55.8936L359.912 77.4148H361.728V65.1531H368.113V132.075C366.109 130.565 365.782 130.192 363.071 130.192C359.895 130.193 356.85 131.449 354.605 133.681C352.36 135.914 351.1 138.942 351.1 142.099C351.099 142.543 351.123 142.987 351.172 143.428C349.055 143.143 346.9 143.424 344.928 144.243C342.957 145.061 341.241 146.388 339.957 148.085C336.447 145.279 331.974 143.944 327.49 144.364C323.005 144.785 318.862 146.927 315.941 150.335C314.613 149.852 313.21 149.603 311.795 149.601C309.309 149.598 306.883 150.368 304.859 151.803C301.433 150.435 297.668 150.141 294.069 150.959C290.469 151.778 287.208 153.671 284.722 156.385C282.235 159.098 280.642 162.503 280.157 166.141C279.672 169.78 280.317 173.479 282.006 176.743C283.695 180.007 286.348 182.679 289.608 184.402C292.869 186.125 296.581 186.816 300.247 186.383C303.914 185.949 307.359 184.412 310.122 181.977C312.885 179.542 314.833 176.325 315.705 172.759L315.941 172.681C318.742 175.95 322.672 178.06 326.958 178.594C331.245 179.129 335.577 178.049 339.104 175.569C352.664 177.286 365.861 181.145 378.196 187C380.293 186.076 382.56 185.599 384.854 185.599C387.147 185.599 389.415 186.076 391.511 187C394.704 186.999 397.828 186.076 400.503 184.342C403.177 182.608 405.287 180.139 406.575 177.235C408.829 178.293 411.294 178.83 413.785 178.805C416.277 178.78 418.731 178.194 420.962 177.091C422.089 178.825 423.651 180.239 425.494 181.192C427.337 182.145 429.398 182.605 431.474 182.527C433.55 182.449 435.569 181.836 437.335 180.748C439.1 179.659 440.551 178.133 441.544 176.319C442.537 174.505 443.038 172.466 442.998 170.401C442.958 168.336 442.379 166.317 441.317 164.542C440.255 162.767 438.747 161.298 436.941 160.277C435.135 159.257 433.093 158.721 431.015 158.722L431.009 158.68ZM366.497 27.1948C366.498 25.5039 367.175 23.8826 368.377 22.6869C369.58 21.4913 371.211 20.8188 372.912 20.8172C374.579 20.8681 376.16 21.562 377.321 22.7519C378.481 23.9418 379.131 25.5343 379.131 27.1918C379.131 28.8493 378.481 30.4416 377.321 31.6315C376.16 32.8214 374.579 33.5154 372.912 33.5663V50.3464V33.5663C371.212 33.5663 369.581 32.8952 368.378 31.7004C367.175 30.5057 366.498 28.8852 366.497 27.1948Z" fill="#59AFFF"/>
</svg>
