<svg width="68" height="52" viewBox="0 0 68 52" fill="none" xmlns="http://www.w3.org/2000/svg">
<circle cx="55.261" cy="43.5485" r="5.50966" stroke="#399DFA" stroke-width="4"/>
<path d="M24.8924 43.5485H50.2817M60.4399 43.5485V43.5485C63.5084 43.5485 65.996 41.061 65.996 37.9924V34.7468C65.996 31.8147 64.1686 29.1934 61.4176 28.179L57.2511 26.6428C56.068 26.2065 55.0247 25.4588 54.2314 24.4787L47.0287 15.5789C45.6997 13.9367 43.7001 12.9825 41.5874 12.9825L32.0265 12.9825H14.5839C10.7179 12.9825 7.58388 16.1165 7.58388 19.9825V37.2633C7.58388 40.7345 10.3979 43.5485 13.8691 43.5485V43.5485" stroke="#399DFA" stroke-width="4"/>
<circle cx="19.4886" cy="43.5485" r="5.50966" stroke="#399DFA" stroke-width="4"/>
<circle cx="12.5726" cy="13.1437" r="11.0726" fill="white" stroke="#399DFA" stroke-width="3"/>
<path d="M12.5726 8.1106V13.4906L16.5915 16.9495" stroke="#399DFA" stroke-width="3" stroke-linecap="round"/>
<path d="M41.7369 18L32 18C30.8954 18 30 18.8954 30 20L30 25.9935C30 27.098 30.8955 27.9935 32 27.9935L46.3682 27.9935C48.0296 27.9935 48.9666 26.0852 47.9508 24.7706L43.3195 18.7771C42.9407 18.287 42.3563 18 41.7369 18Z" stroke="#399DFA" stroke-width="2" stroke-linecap="round"/>
</svg>
