<svg width="50" height="59" viewBox="0 0 50 59" fill="none" xmlns="http://www.w3.org/2000/svg">
<path d="M19.1264 12.6997L16.067 18.096C15.7864 18.591 15.0903 18.6359 14.7483 18.1811L13.2089 16.1334" stroke="#399DFA" stroke-width="2" stroke-linecap="round" stroke-linejoin="round"/>
<path d="M19.1264 24.5317L16.067 29.928C15.7864 30.423 15.0903 30.468 14.7483 30.0131L13.2089 27.9654" stroke="#399DFA" stroke-width="2" stroke-linecap="round" stroke-linejoin="round"/>
<path d="M19.1264 36.3638L16.067 41.7601C15.7864 42.2551 15.0903 42.3 14.7483 41.8451L13.2089 39.7974" stroke="#399DFA" stroke-width="2" stroke-linecap="round" stroke-linejoin="round"/>
<rect x="2" y="2" width="45.3633" height="54.1517" rx="6" stroke="#399DFA" stroke-width="4"/>
<rect x="10.3353" y="13.1997" width="8.29189" height="8.0883" rx="1.5" stroke="#399DFA"/>
<rect x="10.3353" y="25.0315" width="8.29189" height="8.0883" rx="1.5" stroke="#399DFA"/>
<rect x="10.3353" y="36.8638" width="8.29189" height="8.0883" rx="1.5" stroke="#399DFA"/>
<path d="M25.7545 15.2439C24.6499 15.2439 23.7545 16.1393 23.7545 17.2439C23.7545 18.3485 24.6499 19.2439 25.7545 19.2439L25.7545 15.2439ZM38.9733 19.2439C40.0778 19.2439 40.9733 18.3485 40.9733 17.2439C40.9733 16.1393 40.0778 15.2439 38.9733 15.2439L38.9733 19.2439ZM25.7545 19.2439L38.9733 19.2439L38.9733 15.2439L25.7545 15.2439L25.7545 19.2439Z" fill="#399DFA"/>
<path d="M25.7545 27.0757C24.6499 27.0757 23.7545 27.9711 23.7545 29.0757C23.7545 30.1803 24.6499 31.0757 25.7545 31.0757L25.7545 27.0757ZM38.9733 31.0757C40.0778 31.0757 40.9733 30.1803 40.9733 29.0757C40.9733 27.9711 40.0778 27.0757 38.9733 27.0757L38.9733 31.0757ZM25.7545 31.0757L38.9733 31.0757L38.9733 27.0757L25.7545 27.0757L25.7545 31.0757Z" fill="#399DFA"/>
<path d="M25.7545 38.9078C24.6499 38.9078 23.7545 39.8033 23.7545 40.9078C23.7545 42.0124 24.6499 42.9078 25.7545 42.9078L25.7545 38.9078ZM38.9733 42.9078C40.0778 42.9078 40.9733 42.0124 40.9733 40.9078C40.9733 39.8033 40.0778 38.9078 38.9733 38.9078L38.9733 42.9078ZM25.7545 42.9078L38.9733 42.9078L38.9733 38.9078L25.7545 38.9078L25.7545 42.9078Z" fill="#399DFA"/>
</svg>
