<svg width="25" height="25" viewBox="0 0 25 25" fill="none" xmlns="http://www.w3.org/2000/svg">
<mask id="mask0" style="mask-type:alpha" maskUnits="userSpaceOnUse" x="0" y="0" width="25" height="25">
<path fill-rule="evenodd" clip-rule="evenodd" d="M24.9153 12.6941C24.9153 14.6651 24.4401 16.5251 23.598 18.1658C24.2861 16.6161 24.66 14.8536 24.66 12.9494C24.66 9.4035 23.3636 6.20886 21.1559 3.97089C23.4708 6.15853 24.9153 9.25762 24.9153 12.6941ZM13.0423 0.69475C16.1832 0.727318 19.0349 1.96654 21.1559 3.97089C19.1501 1.93768 16.3921 0.694092 13.1706 0.694092C13.1278 0.694092 13.085 0.694312 13.0423 0.69475ZM0.915972 12.8211C0.966337 17.6783 3.90243 21.8439 8.09131 23.6851C3.85818 21.9008 0.915314 17.9051 0.915314 12.9494C0.915314 12.9066 0.915533 12.8638 0.915972 12.8211ZM13.0392 24.6935C17.6433 24.6469 21.6264 22.0075 23.598 18.1658C21.8407 22.1237 18.0338 24.6941 13.1706 24.6941C13.1268 24.6941 13.083 24.6939 13.0392 24.6935ZM13.0392 24.6935C11.2757 24.6766 9.60142 24.3216 8.09131 23.6851C9.56754 24.3339 11.1994 24.6941 12.9153 24.6941C12.9567 24.6941 12.998 24.6939 13.0392 24.6935ZM0.915972 12.8211C0.984381 6.15551 6.37673 0.763159 13.0423 0.69475C13 0.694312 12.9577 0.694092 12.9153 0.694092C6.2879 0.694092 0.915314 6.06667 0.915314 12.6941C0.915314 12.7365 0.915533 12.7788 0.915972 12.8211ZM13.4304 20.0848H13.4274C12.1997 20.0843 10.9934 19.7765 9.92205 19.1923L6.03373 20.212L7.07439 16.4121C6.43241 15.3002 6.09469 14.0387 6.09525 12.7463C6.09693 8.70336 9.38741 5.41419 13.4304 5.41419C15.3924 5.41494 17.2342 6.17865 18.6189 7.56452C20.0039 8.95057 20.7661 10.7929 20.7653 12.7521C20.7636 16.7953 17.4728 20.0848 13.4304 20.0848ZM7.3336 12.7473C7.3351 9.38685 10.07 6.65307 13.4328 6.65307C15.0611 6.65364 16.5918 7.2885 17.7428 8.44043C18.8938 9.59236 19.5274 11.1235 19.5268 12.7521C19.5253 16.1127 16.7904 18.8467 13.4302 18.8467H13.4278C12.3338 18.8463 11.2608 18.5525 10.3249 17.9971L10.1022 17.8651L7.79475 18.4702L8.41073 16.2212L8.2658 15.9906C7.65562 15.0203 7.33323 13.8988 7.3336 12.7473ZM15.7818 16.2388C16.1339 16.186 16.866 15.7954 17.0188 15.3675C17.1716 14.9395 17.1716 14.5728 17.1256 14.4963C17.0887 14.4348 17.0025 14.3931 16.8748 14.3314C16.8438 14.3163 16.8102 14.3001 16.7744 14.2822C16.5911 14.1905 15.6901 13.7472 15.522 13.6862C15.3541 13.625 15.2318 13.5944 15.1097 13.7778C14.9876 13.9613 14.6362 14.374 14.5294 14.4963C14.4224 14.6184 14.3155 14.6337 14.1324 14.5421C14.1024 14.527 14.0614 14.5093 14.0108 14.4873C13.7526 14.3753 13.2438 14.1546 12.6585 13.6327C12.1137 13.1469 11.7457 12.5468 11.6389 12.3635C11.5431 12.1992 11.6182 12.1101 11.6934 12.0208C11.7021 12.0104 11.7109 12 11.7193 11.9895C11.9133 11.749 12.1163 11.4852 12.1775 11.3629C12.2385 11.2406 12.208 11.1336 12.1622 11.0418C12.1315 10.9805 11.9575 10.557 11.7998 10.1734C11.7217 9.98333 11.6477 9.8031 11.597 9.68156C11.4658 9.36604 11.3326 9.36686 11.2258 9.36751C11.2116 9.3676 11.1979 9.36768 11.1847 9.36702C11.0779 9.36179 10.9556 9.36067 10.8335 9.36067C10.7114 9.36067 10.5128 9.40648 10.3447 9.58993C10.334 9.60163 10.322 9.6144 10.309 9.62827C10.1182 9.83169 9.70328 10.2742 9.70328 11.1183C9.70328 12.0151 10.3526 12.8816 10.4501 13.0116L10.4517 13.0137C10.4577 13.0218 10.4684 13.0372 10.4838 13.0593C10.7034 13.3741 11.8645 15.0386 13.5824 15.7802C14.0198 15.9689 14.3611 16.0817 14.6274 16.1662C15.0665 16.3055 15.4659 16.2859 15.7818 16.2388Z" fill="white"/>
</mask>
<g mask="url(#mask0)">
<ellipse cx="12.4047" cy="13.4599" rx="9.44681" ry="9.70213" fill="white"/>
</g>
</svg>
