<svg width="16" height="13" viewBox="0 0 16 13" fill="none" xmlns="http://www.w3.org/2000/svg">
<path d="M15.3205 0.187127C14.986 -0.143665 14.5846 0.0382705 14.2334 0.170587C12.4438 0.865251 10.6542 1.54338 8.86467 2.2215C6.15522 3.26349 3.42905 4.30549 0.719609 5.34749C0.401835 5.46326 0.0171607 5.5625 0.000435767 5.94291C-0.0162892 6.40602 0.45201 6.4391 0.786509 6.53834C1.60603 6.80297 2.44228 7.01799 3.24508 7.3157C3.83045 7.54725 4.28203 7.44802 4.78378 7.11722C7.17545 5.59558 9.58384 4.10701 11.9922 2.60191C12.2264 2.45305 12.4438 2.20496 12.795 2.33728C12.8118 2.60191 12.6111 2.70115 12.4773 2.81693C10.6208 4.47089 8.79777 6.17447 6.89112 7.77881C6.18867 8.35769 6.17195 8.53963 6.02142 9.84626C5.97125 10.3094 5.92107 10.7725 5.90435 11.2356C5.88762 11.4671 5.78727 11.8806 5.97125 11.9302C6.25557 12.1122 6.473 11.8476 6.6737 11.6491C7.0751 11.2687 7.49322 10.9048 7.86117 10.4913C8.16222 10.1605 8.39637 10.1605 8.76432 10.4417C9.75109 11.2025 10.7546 11.9303 11.7748 12.6415C12.494 13.1376 12.9957 12.9557 13.1797 12.1287C13.5477 10.4913 13.8654 8.83734 14.1999 7.18338C14.7351 5.23171 15.0529 3.23042 15.4543 1.24566C15.5212 0.881791 15.6383 0.50138 15.3205 0.187127Z" fill="white"/>
</svg>
