<svg width="8" height="14" viewBox="0 0 8 14" fill="none" xmlns="http://www.w3.org/2000/svg">
<path d="M5.22122 5.48769C6.10744 5.48769 6.99099 5.48769 7.89856 5.48769C7.87454 5.69581 7.85052 5.89092 7.82649 6.08342C7.74107 6.72338 7.65566 7.36334 7.57291 8.0007C7.55155 8.17239 7.55422 8.17239 7.37004 8.17239C6.7027 8.17239 6.03537 8.17239 5.36803 8.17239C5.31465 8.17239 5.26393 8.17239 5.1972 8.17239C5.1972 8.23483 5.1972 8.28686 5.1972 8.33629C5.1972 10.4955 5.1972 11.6547 5.1972 13.8113C5.1972 13.9934 5.1972 13.9934 5.01034 13.9934C4.18285 13.9934 3.35536 13.9934 2.52786 13.9934C2.47447 13.9934 2.42376 13.9934 2.35435 13.9934C2.35435 11.7145 2.35435 10.4513 2.35435 8.16979C1.56156 8.16979 0.787454 8.16979 0 8.16979C0 7.26709 0 6.38259 0 5.47989C0.784785 5.47989 1.55889 5.47989 2.35168 5.47989C2.35168 5.41225 2.35168 5.36282 2.35168 5.31079C2.35168 4.70725 2.35168 4.10632 2.35168 3.50278C2.35168 2.94347 2.43443 2.39716 2.664 1.87947C3.11512 0.857098 3.93193 0.282176 5.03437 0.0714584C5.51218 -0.0195926 5.998 -0.0195926 6.48382 0.00642199C6.95095 0.0324366 7.41542 0.063654 7.87988 0.0896686C7.97064 0.0948715 8.00267 0.126089 8 0.214538C7.99733 0.942946 7.99466 1.67135 8 2.39976C8 2.52203 7.92793 2.51683 7.84518 2.51683C7.33267 2.51943 6.82282 2.51683 6.31031 2.52723C6.17951 2.52983 6.04338 2.55325 5.91792 2.58707C5.48549 2.69893 5.25058 2.9981 5.22923 3.41433C5.19453 4.08811 5.20787 4.76449 5.20254 5.44086C5.20254 5.45387 5.20787 5.46168 5.22122 5.48769Z" fill="white"/>
</svg>
