<svg width="18" height="20" viewBox="0 0 18 20" fill="none" xmlns="http://www.w3.org/2000/svg">
<path d="M11.3914 9.14706L8.47267 12.8619C8.0585 13.3891 7.34293 13.5741 6.72516 13.3137L5.73709 12.8973C5.11619 12.6357 4.39693 12.824 3.98393 13.3564L1.927 16.0079C1.41571 16.667 1.53906 17.6356 2.28095 18.017C4.0383 18.9202 6.03286 19.1106 8.15375 17.7398C10.5485 16.192 15.5592 10.7474 16.5443 7.47368C17.3044 4.94796 16.3108 3.00043 15.182 1.90037C14.6644 1.396 13.8593 1.56722 13.4122 2.13494L11.2677 4.85758C10.9367 5.27793 10.8568 5.84369 11.0587 6.33924L11.5994 7.6668C11.801 8.16175 11.7216 8.72681 11.3914 9.14706Z" stroke="#399DFA" stroke-width="1.5"/>
</svg>
