<svg width="16" height="10" viewBox="0 0 16 10" fill="none" xmlns="http://www.w3.org/2000/svg">
<path fill-rule="evenodd" clip-rule="evenodd" d="M13.4191 5.88826C13.3554 5.81645 13.2918 5.74465 13.2918 5.67284C13.2918 5.60103 13.3554 5.45741 13.4191 5.3856C14.31 4.02125 15.0101 2.94413 15.7737 1.50797C16.0283 1.07712 16.0283 0.718081 15.9646 0.646273C15.901 0.502656 15.7101 0.35904 15.5828 0.35904H12.9736C12.6554 0.35904 12.3372 0.35904 12.1463 0.789889C11.6372 2.01063 10.8735 3.80583 10.1735 4.52391C10.0462 4.66752 9.91894 4.73933 9.72802 4.73933C9.5371 4.73933 9.40983 4.59572 9.40983 4.38029V0.718081C9.40983 0.502656 9.34619 0.287232 9.15527 0.143616C8.96435 0 8.77344 0 8.58252 0H6.41879C5.7824 0 5.40057 0.287232 5.40057 0.430848C5.40057 0.574465 5.71876 0.718081 5.90968 0.861697C6.1006 1.07712 6.29151 1.36435 6.29151 1.72339V4.23668C6.29151 4.4521 6.22788 4.66752 6.03696 4.81114C5.97332 4.88295 5.84604 4.88295 5.7824 4.88295C5.65512 4.88295 5.59149 4.81114 5.52785 4.73933C4.70054 3.51859 4.70054 3.37498 3.4914 0.933505C3.42776 0.789889 3.36412 0.718081 3.23684 0.574464C3.04592 0.430848 2.85501 0.430848 2.66409 0.430848H0.500363C-0.136027 0.430848 -0.0087489 0.861697 0.0548901 1.00531C0.754919 2.6569 1.45495 4.23668 2.28226 5.81645C3.23684 7.68346 4.12779 8.83239 5.59148 9.62228C6.1006 9.90951 6.67335 9.98132 7.2461 9.98132H8.77344C8.96435 9.98132 9.28255 9.8377 9.28255 9.55047V8.25793C9.28255 7.89889 9.60074 7.75527 9.79166 7.68346C9.98258 7.61165 10.1735 7.68346 10.3008 7.89889C11.1281 8.9042 11.0644 8.83239 11.8281 9.69409C11.9554 9.90951 12.2099 10.0531 12.4645 9.98132H15.2646C15.4555 9.90951 15.5828 9.8377 15.6465 9.62228C15.7101 9.47866 15.8374 9.04782 15.6465 8.76058C14.9464 7.68346 14.1828 6.74996 13.4191 5.88826Z" fill="white"/>
</svg>
