<svg width="168" height="17" viewBox="0 0 168 17" fill="none" xmlns="http://www.w3.org/2000/svg">
<g clip-path="url(#clip0)">
<path d="M12.18 13.5875C11.6411 14.601 10.8326 15.4544 9.83927 16.0585C8.85087 16.6521 7.71003 16.96 6.54933 16.9464C4.71347 16.9464 3.18107 16.3671 1.95213 15.2085C0.686474 14.014 0.0536499 12.5031 0.0536499 10.6757C0.0536499 8.89351 0.667038 7.41259 1.89382 6.23292C3.1206 5.05324 4.63896 4.46339 6.44889 4.46339C7.64246 4.44292 8.81896 4.74183 9.85062 5.32762C10.8378 5.8993 11.6274 6.74541 12.1184 7.75755H10.6606C10.339 7.25906 9.92674 6.82213 9.44403 6.46832C8.57955 5.85319 7.53168 5.53232 6.46185 5.55512C4.94025 5.55512 3.69835 6.05281 2.73614 7.04816C2.2615 7.53114 1.88926 8.10074 1.64075 8.72431C1.39225 9.34787 1.27238 10.0131 1.28799 10.682C1.27077 11.3665 1.39709 12.0472 1.6592 12.6824C1.92132 13.3176 2.31368 13.8938 2.81227 14.3758C3.2975 14.861 3.8797 15.2439 4.52279 15.5007C5.16588 15.7575 5.85618 15.8828 6.55095 15.8689C7.34054 15.8717 8.11893 15.6867 8.81877 15.3301C9.60671 14.9404 10.2655 14.3412 10.7189 13.6017H12.1768" fill="white"/>
<path d="M12.18 13.5875C11.6411 14.601 10.8326 15.4544 9.83927 16.0585C8.85087 16.6521 7.71003 16.96 6.54933 16.9464C4.71347 16.9464 3.18107 16.3671 1.95213 15.2085C0.686474 14.014 0.0536499 12.5031 0.0536499 10.6757C0.0536499 8.89351 0.667038 7.41259 1.89382 6.23292C3.1206 5.05324 4.63896 4.46339 6.44889 4.46339C7.64246 4.44292 8.81896 4.74183 9.85062 5.32762C10.8378 5.8993 11.6274 6.74541 12.1184 7.75755H10.6606C10.339 7.25906 9.92674 6.82213 9.44403 6.46832C8.57955 5.85319 7.53168 5.53232 6.46185 5.55512C4.94025 5.55512 3.69835 6.05281 2.73614 7.04816C2.2615 7.53114 1.88926 8.10074 1.64075 8.72431C1.39225 9.34787 1.27238 10.0131 1.28799 10.682C1.27077 11.3665 1.39709 12.0472 1.6592 12.6824C1.92132 13.3176 2.31368 13.8938 2.81227 14.3758C3.2975 14.861 3.8797 15.2439 4.52279 15.5007C5.16588 15.7575 5.85618 15.8828 6.55095 15.8689C7.34054 15.8717 8.11893 15.6867 8.81877 15.3301C9.60671 14.9404 10.2655 14.3412 10.7189 13.6017L12.18 13.5875Z" fill="white"/>
<path d="M27.5702 16.7346H26.3375V6.01955L21.6577 16.7346H20.6242L15.9444 6.01955V16.7346H14.7117V4.6687H16.6102L21.1458 14.9382L25.6814 4.6687H27.5815V16.7362" fill="white"/>
<path d="M27.5702 16.7346H26.3375V6.01955L21.6577 16.7346H20.6242L15.9444 6.01955V16.7346H14.7117V4.6687H16.6102L21.1458 14.9382L25.6814 4.6687H27.5815L27.5702 16.7346Z" fill="white"/>
<path d="M37.9114 11.5981L35.5464 6.06839L33.1474 11.5981H37.9114ZM41.5091 16.7345H40.1776L38.3958 12.6899H32.6679L30.886 16.7345H29.5545L34.866 4.66699H36.2332L41.5124 16.7345" fill="white"/>
<path d="M37.9114 11.5981L35.5464 6.06839L33.1474 11.5981H37.9114ZM41.5091 16.7345H40.1776L38.3958 12.6899H32.6679L30.886 16.7345H29.5545L34.866 4.66699H36.2332L41.5091 16.7345Z" fill="white"/>
<path d="M50.4217 8.28673C50.4348 7.9683 50.3825 7.65051 50.2679 7.35207C50.1533 7.05362 49.9786 6.78053 49.7543 6.54882C49.2327 6.02217 48.4557 5.75885 47.4233 5.75885H44.7424V10.7988H47.4233C48.446 10.7988 49.2176 10.5355 49.7381 10.0089C49.9657 9.78194 50.1437 9.51229 50.2612 9.21625C50.3787 8.92022 50.4333 8.60398 50.4217 8.28673ZM51.6544 8.28673C51.6544 9.29789 51.3375 10.1242 50.7036 10.7656C49.9606 11.5166 48.8612 11.8916 47.4055 11.8905H44.7424V16.7346H43.5097V4.6687H47.3974C49.0075 4.6687 50.1679 5.09792 50.8785 5.95634C51.3904 6.5662 51.6463 7.34352 51.6463 8.28832" fill="white"/>
<path d="M50.4217 8.28673C50.4348 7.9683 50.3825 7.65051 50.2679 7.35207C50.1533 7.05362 49.9787 6.78053 49.7543 6.54882C49.2327 6.02217 48.4557 5.75885 47.4233 5.75885H44.7424V10.7988H47.4233C48.446 10.7988 49.2176 10.5355 49.7381 10.0089C49.9657 9.78194 50.1437 9.51229 50.2612 9.21625C50.3787 8.92022 50.4333 8.60398 50.4217 8.28673ZM51.6544 8.28673C51.6544 9.29789 51.3375 10.1242 50.7036 10.7656C49.9606 11.5166 48.8612 11.8916 47.4055 11.8905H44.7424V16.7346H43.5097V4.6687H47.3974C49.0075 4.6687 50.1679 5.09792 50.8785 5.95634C51.399 6.56514 51.6593 7.34194 51.6593 8.28673H51.6544Z" fill="white"/>
<path d="M59.6987 5.75885H56.8834V16.7346H55.6523V5.75885H52.8369V4.6687H59.6987V5.76043" fill="white"/>
<path d="M59.6987 5.75885H56.8834V16.7346H55.6523V5.75885H52.8369V4.6687H59.6987V5.75885Z" fill="white"/>
<path d="M72.9234 10.6347C72.9234 9.14636 72.4207 7.92613 71.4153 6.97396C70.4099 6.02179 69.1523 5.54781 67.6426 5.55203C66.1307 5.55203 64.8677 6.04392 63.8537 7.02769C62.8397 8.01146 62.3316 9.24801 62.3294 10.7374C62.3294 12.2383 62.8348 13.4669 63.8456 14.4233C64.8564 15.3797 66.122 15.8584 67.6426 15.8595C69.1544 15.8595 70.412 15.3676 71.4153 14.3838C72.4185 13.4 72.9212 12.1503 72.9234 10.6347ZM74.1561 10.6347C74.1561 12.441 73.5314 13.9446 72.2819 15.1453C71.0324 16.3461 69.4806 16.9464 67.6264 16.9464C65.783 16.9464 64.2338 16.3593 62.9789 15.1848C61.7241 14.0104 61.0967 12.5264 61.0967 10.7326C61.0967 8.92833 61.7214 7.43108 62.9709 6.24087C64.2203 5.05066 65.7722 4.45557 67.6264 4.45557C69.4806 4.45557 71.0324 5.03961 72.2819 6.2077C73.5314 7.37579 74.1561 8.85039 74.1561 10.6315" fill="white"/>
<path d="M72.9234 10.6347C72.9234 9.14636 72.4207 7.92613 71.4153 6.97396C70.4099 6.02179 69.1523 5.54781 67.6426 5.55203C66.1307 5.55203 64.8677 6.04392 63.8537 7.02769C62.8397 8.01146 62.3316 9.24801 62.3294 10.7374C62.3294 12.2383 62.8348 13.4669 63.8456 14.4233C64.8564 15.3797 66.122 15.8584 67.6426 15.8595C69.1544 15.8595 70.412 15.3676 71.4153 14.3838C72.4185 13.4 72.9212 12.1503 72.9234 10.6347ZM74.1561 10.6347C74.1561 12.441 73.5314 13.9446 72.2819 15.1453C71.0324 16.3461 69.4806 16.9464 67.6264 16.9464C65.783 16.9464 64.2338 16.3593 62.9789 15.1848C61.7241 14.0104 61.0967 12.5264 61.0967 10.7326C61.0967 8.92833 61.7214 7.43108 62.9709 6.24087C64.2203 5.05066 65.7722 4.45557 67.6264 4.45557C69.4806 4.45557 71.0324 5.03961 72.2819 6.2077C73.5314 7.37579 74.1561 8.85144 74.1561 10.6347Z" fill="white"/>
<path d="M86.9627 16.7345H85.615L81.3029 6.18214L76.9552 16.7345H75.6058L80.7181 4.66699H81.8861L86.9643 16.7345" fill="white"/>
<path d="M86.9627 16.7345H85.615L81.3029 6.18214L76.9552 16.7345H75.6058L80.7181 4.66699H81.8861L86.9627 16.7345Z" fill="white"/>
<path d="M94.4595 4.0146H93.2268V1.96069H94.4595V4.0146ZM91.5599 4.0146H90.3272V1.96069H91.5599V4.0146ZM95.6922 16.7346H88.9293V4.66869H95.6922V5.76042H90.162V10.1147H95.5075V11.208H90.162V15.6428H95.6922V16.7362" fill="white"/>
<path d="M94.4595 4.0146H93.2268V1.96069H94.4595V4.0146ZM91.5599 4.0146H90.3272V1.96069H91.5599V4.0146ZM95.6922 16.7346H88.9293V4.66869H95.6922V5.76042H90.162V10.1147H95.5075V11.208H90.162V15.6428H95.6922V16.7346Z" fill="white"/>
<path d="M104.185 5.75885H101.37V16.7346H100.139V5.75885H97.3234V4.6687H104.185V5.76043" fill="white"/>
<path d="M104.185 5.75885H101.37V16.7346H100.139V5.75885H97.3234V4.6687H104.185V5.75885Z" fill="white"/>
<path d="M113.569 9.85876L118.772 7.01489L126.682 12.2934L116.9 16.5592L113.569 9.86034" fill="url(#paint0_linear)"/>
<path d="M151.542 0C151.542 0 148.942 1.24656 148.523 1.44247C137.681 6.49824 116.9 16.5576 116.9 16.5576H133.552L168 0H151.542Z" fill="url(#paint1_linear)"/>
</g>
<defs>
<linearGradient id="paint0_linear" x1="115.31" y1="14.0564" x2="128.419" y2="14.0564" gradientUnits="userSpaceOnUse">
<stop stop-color="#73A8E0"/>
<stop offset="1" stop-color="#4267B5"/>
</linearGradient>
<linearGradient id="paint1_linear" x1="118.039" y1="9.53936" x2="169.131" y2="9.53936" gradientUnits="userSpaceOnUse">
<stop stop-color="#73A8E0"/>
<stop offset="1" stop-color="#4267B5"/>
</linearGradient>
<clipPath id="clip0">
<rect width="168" height="17" fill="white"/>
</clipPath>
</defs>
</svg>
