<svg width="195" height="20" viewBox="0 0 195 20" fill="none" xmlns="http://www.w3.org/2000/svg">
<path d="M14.9267 15.4359C14.2628 16.6777 13.3674 17.6466 12.2389 18.3446C11.1096 19.0426 9.85025 19.3914 8.46008 19.3914C6.35607 19.3914 4.59627 18.7059 3.18068 17.3361C1.72717 15.9284 1 14.1491 1 11.998C1 9.89853 1.70425 8.15457 3.11401 6.76603C4.52334 5.37588 6.26731 4.68204 8.34549 4.68204C9.81233 4.68204 11.1158 5.02085 12.2576 5.70008C13.3986 6.37856 14.2696 7.33153 14.8684 8.56091H13.186C12.7902 7.94622 12.3243 7.4411 11.7888 7.04403C10.82 6.32725 9.67815 5.96891 8.36424 5.96891C6.61736 5.96891 5.18926 6.55437 4.07954 7.7254C2.97025 8.89759 2.416 10.3215 2.416 11.998C2.416 13.7261 2.999 15.1763 4.16581 16.3472C5.33262 17.5182 6.76404 18.1049 8.46008 18.1049C9.37895 18.1049 10.2457 17.8933 11.0616 17.4703C11.9681 17.0098 12.6939 16.3318 13.2432 15.4359H14.9267Z" fill="#556061"/>
<path d="M14.9267 15.4359C14.2628 16.6777 13.3674 17.6466 12.2389 18.3446C11.1096 19.0426 9.85025 19.3914 8.46008 19.3914C6.35607 19.3914 4.59627 18.7059 3.18068 17.3361C1.72717 15.9284 1 14.1491 1 11.998C1 9.89853 1.70425 8.15457 3.11401 6.76603C4.52334 5.37588 6.26731 4.68204 8.34549 4.68204C9.81233 4.68204 11.1158 5.02085 12.2576 5.70008C13.3986 6.37857 14.2696 7.33153 14.8684 8.56091H13.186C12.7902 7.94622 12.3243 7.4411 11.7888 7.04403C10.82 6.32725 9.67815 5.96891 8.36424 5.96891C6.61736 5.96891 5.18926 6.55437 4.07954 7.7254C2.97025 8.89759 2.416 10.3215 2.416 11.998C2.416 13.7261 2.999 15.1763 4.16581 16.3472C5.33262 17.5182 6.76404 18.1049 8.46008 18.1049C9.37895 18.1049 10.2457 17.8933 11.0616 17.4703C11.9681 17.0098 12.6939 16.3318 13.2432 15.4359H14.9267Z" stroke="#556061" stroke-width="0.666667" stroke-miterlimit="10"/>
<path d="M32.6017 19.1414H31.1861V6.52528L25.8113 19.1414H24.6245L19.2501 6.52528V19.1414H17.8345V4.93127H20.0147L25.2175 17.0286L30.421 4.93127H32.6017V19.1414Z" fill="#556061"/>
<path d="M32.6017 19.1414H31.1861V6.52528L25.8113 19.1414H24.6245L19.2501 6.52528V19.1414H17.8345V4.93127H20.0147L25.2175 17.0286L30.421 4.93127H32.6017V19.1414Z" stroke="#556061" stroke-width="0.666667" stroke-miterlimit="10"/>
<path d="M44.4803 13.0927L41.7633 6.58278L39.0088 13.0927H44.4803ZM48.6122 19.1414H47.0819L45.0345 14.3795H38.4546L36.4072 19.1414H34.8771L40.9791 4.93127H42.548L48.6122 19.1414Z" fill="#556061"/>
<path d="M44.4803 13.0927L41.7633 6.58278L39.0088 13.0927H44.4803ZM48.6122 19.1414H47.0819L45.0345 14.3795H38.4546L36.4072 19.1414H34.8771L40.9791 4.93127H42.548L48.6122 19.1414Z" stroke="#556061" stroke-width="0.666667" stroke-miterlimit="10"/>
<path d="M58.8467 9.19431C58.8467 8.34918 58.5916 7.66494 58.0807 7.13986C57.4819 6.52528 56.5893 6.21815 55.4038 6.21815H52.3242V12.1522H55.4038C56.5768 12.1522 57.4631 11.8446 58.0625 11.23C58.5854 10.7049 58.8467 10.0269 58.8467 9.19431ZM60.2627 9.19431C60.2627 10.3849 59.8989 11.3579 59.1717 12.1134C58.3174 12.9969 57.0548 13.4386 55.3837 13.4386H52.3242V19.1414H50.9082V4.93127H55.3837C57.2327 4.93127 58.5662 5.43757 59.3822 6.44815C59.9689 7.16611 60.2627 8.08088 60.2627 9.19431Z" fill="#556061"/>
<path d="M58.8467 9.19431C58.8467 8.34918 58.5916 7.66494 58.0807 7.13986C57.4819 6.52528 56.5893 6.21815 55.4038 6.21815H52.3242V12.1522H55.4038C56.5768 12.1522 57.4631 11.8446 58.0625 11.23C58.5854 10.7049 58.8467 10.0269 58.8467 9.19431V9.19431ZM60.2627 9.19431C60.2627 10.3849 59.8989 11.3579 59.1717 12.1134C58.3174 12.9969 57.0548 13.4386 55.3837 13.4386H52.3242V19.1414H50.9082V4.93127H55.3837C57.2327 4.93127 58.5662 5.43757 59.3822 6.44815C59.9689 7.1661 60.2627 8.08088 60.2627 9.19431V9.19431Z" stroke="#556061" stroke-width="0.666667" stroke-miterlimit="10"/>
<path d="M69.5021 6.21815H66.2683V19.1414H64.8537V6.21815H61.6212V4.93127H69.5021V6.21815Z" fill="#556061"/>
<path d="M69.5021 6.21815H66.2683V19.1414H64.8537V6.21815H61.6212V4.93127H69.5021V6.21815Z" stroke="#556061" stroke-width="0.666667" stroke-miterlimit="10"/>
<path d="M84.6894 11.9592C84.6894 10.2061 84.1123 8.76926 82.958 7.64827C81.8036 6.52856 80.3597 5.96891 78.625 5.96891C76.8906 5.96891 75.4404 6.54808 74.2735 7.70662C73.1068 8.86506 72.5233 10.3215 72.5233 12.0746C72.5233 13.8419 73.1039 15.2888 74.2644 16.4152C75.4246 17.5411 76.8781 18.1049 78.625 18.1049C80.3597 18.1049 81.8036 17.5257 82.958 16.3672C84.1123 15.2083 84.6894 13.7398 84.6894 11.9592ZM86.1055 11.9592C86.1055 14.0845 85.3874 15.8547 83.9531 17.2694C82.5184 18.6838 80.7361 19.3914 78.6066 19.3914C76.4897 19.3914 74.7098 18.6996 73.2692 17.3174C71.8287 15.9347 71.1078 14.1878 71.1078 12.0746C71.1078 9.94937 71.8253 8.18711 73.2601 6.78437C74.6945 5.3826 76.4772 4.68204 78.6066 4.68204C80.7361 4.68204 82.5184 5.37001 83.9531 6.74608C85.3874 8.12203 86.1055 9.85977 86.1055 11.9592Z" fill="#556061"/>
<path d="M84.6894 11.9592C84.6894 10.2061 84.1123 8.76926 82.958 7.64827C81.8036 6.52856 80.3597 5.96891 78.625 5.96891C76.8906 5.96891 75.4404 6.54808 74.2735 7.70662C73.1068 8.86506 72.5233 10.3215 72.5233 12.0746C72.5233 13.8419 73.1039 15.2888 74.2644 16.4152C75.4246 17.5411 76.8781 18.1049 78.625 18.1049C80.3597 18.1049 81.8036 17.5257 82.958 16.3672C84.1123 15.2083 84.6894 13.7398 84.6894 11.9592V11.9592ZM86.1055 11.9592C86.1055 14.0845 85.3874 15.8547 83.9531 17.2694C82.5184 18.6838 80.7361 19.3914 78.6066 19.3914C76.4897 19.3914 74.7098 18.6996 73.2692 17.3174C71.8287 15.9347 71.1078 14.1878 71.1078 12.0746C71.1078 9.94937 71.8253 8.18711 73.2601 6.78437C74.6945 5.3826 76.4772 4.68204 78.6066 4.68204C80.7361 4.68204 82.5184 5.37001 83.9531 6.74608C85.3874 8.12203 86.1055 9.85977 86.1055 11.9592Z" stroke="#556061" stroke-width="0.666667" stroke-miterlimit="10"/>
<path d="M100.815 19.1414H99.2662L94.3114 6.71688L89.3191 19.1414H87.7689L93.6413 4.93127H94.9815L100.815 19.1414Z" fill="#556061"/>
<path d="M100.815 19.1414H99.2662L94.3114 6.71688L89.3191 19.1414H87.7689L93.6413 4.93127H94.9815L100.815 19.1414Z" stroke="#556061" stroke-width="0.666667" stroke-miterlimit="10"/>
<path d="M109.424 3.13703H108.008V1.74421H109.424V3.13703ZM106.095 3.13703H104.679V1.74421H106.095V3.13703ZM110.84 19.1414H103.073V4.93127H110.84V6.21815H104.489V11.3454H110.629V12.6322H104.489V17.855H110.84V19.1414Z" fill="#556061"/>
<path d="M109.424 3.13703H108.008V1.74421H109.424V3.13703ZM106.095 3.13703H104.679V1.74421H106.095V3.13703ZM110.84 19.1414H103.073V4.93127H110.84V6.21815H104.489V11.3454H110.629V12.6322H104.489V17.855H110.84V19.1414Z" stroke="#556061" stroke-width="0.666667" stroke-miterlimit="10"/>
<path d="M120.594 6.21815H117.361V19.1414H115.946V6.21815H112.714V4.93127H120.594V6.21815Z" fill="#556061"/>
<path d="M120.594 6.21815H117.361V19.1414H115.946V6.21815H112.714V4.93127H120.594V6.21815Z" stroke="#556061" stroke-width="0.666667" stroke-miterlimit="10"/>
<path d="M131.543 11.6089L137.519 8.26187L146.604 14.4776L135.367 19.4978L131.543 11.6089Z" fill="url(#paint0_linear)"/>
<path d="M175.154 -4.95911e-05C175.154 -4.95911e-05 172.169 1.46808 171.687 1.69808C159.236 7.64174 135.367 19.4978 135.367 19.4978H154.492L194.056 -4.95911e-05H175.154Z" fill="url(#paint1_linear)"/>
<defs>
<linearGradient id="paint0_linear" x1="131.543" y1="13.8798" x2="146.604" y2="13.8798" gradientUnits="userSpaceOnUse">
<stop stop-color="#51ABE4"/>
<stop offset="0.00368702" stop-color="#51ABE4"/>
<stop offset="1" stop-color="#2367BA"/>
</linearGradient>
<linearGradient id="paint1_linear" x1="135.368" y1="9.74888" x2="194.057" y2="9.74888" gradientUnits="userSpaceOnUse">
<stop stop-color="#51ABE4"/>
<stop offset="1" stop-color="#2367BA"/>
</linearGradient>
</defs>
</svg>
