<svg width="184" height="19" viewBox="0 0 184 19" fill="none" xmlns="http://www.w3.org/2000/svg">
<path d="M14.2013 14.6318C13.572 15.8089 12.7232 16.7273 11.6535 17.3889C10.583 18.0506 9.38923 18.3812 8.07148 18.3812C6.07707 18.3812 4.40894 17.7314 3.06709 16.433C1.68929 15.0987 1 13.412 1 11.3729C1 9.38287 1.66757 7.72976 3.00389 6.41354C4.33981 5.09581 5.99293 4.43811 7.96285 4.43811C9.35329 4.43811 10.5889 4.75928 11.6712 5.40312C12.7528 6.04626 13.5783 6.94959 14.146 8.11493H12.5512C12.1761 7.53226 11.7344 7.05345 11.2268 6.67707C10.3084 5.99762 9.2261 5.65795 7.98063 5.65795C6.32475 5.65795 4.97104 6.21291 3.91913 7.32294C2.86761 8.43407 2.34224 9.78381 2.34224 11.3729C2.34224 13.011 2.89487 14.3857 4.0009 15.4957C5.10693 16.6056 6.46379 17.1618 8.07148 17.1618C8.94248 17.1618 9.7641 16.9611 10.5375 16.5602C11.3967 16.1237 12.0848 15.481 12.6054 14.6318H14.2013Z" fill="#556061"/>
<path d="M14.2013 14.6318C13.572 15.8089 12.7232 16.7273 11.6535 17.3889C10.583 18.0506 9.38923 18.3812 8.07148 18.3812C6.07707 18.3812 4.40894 17.7314 3.06709 16.433C1.68929 15.0987 1 13.412 1 11.3729C1 9.38287 1.66757 7.72975 3.00389 6.41354C4.33981 5.09581 5.99293 4.43811 7.96285 4.43811C9.35329 4.43811 10.5889 4.75928 11.6712 5.40312C12.7528 6.04626 13.5783 6.94959 14.1459 8.11493H12.5512C12.1761 7.53226 11.7344 7.05345 11.2268 6.67707C10.3084 5.99762 9.2261 5.65795 7.98063 5.65795C6.32475 5.65795 4.97104 6.21291 3.91913 7.32294C2.86761 8.43407 2.34224 9.78381 2.34224 11.3729C2.34224 13.011 2.89487 14.3857 4.0009 15.4957C5.10693 16.6056 6.46379 17.1618 8.07148 17.1618C8.94248 17.1618 9.7641 16.9611 10.5375 16.5602C11.3967 16.1237 12.0848 15.481 12.6054 14.6318H14.2013Z" stroke="#556061" stroke-width="0.666667" stroke-miterlimit="10"/>
<path d="M30.9556 18.1442H29.6138V6.18531L24.5189 18.1442H23.3939L18.2994 6.18531V18.1442H16.9576V4.67433H19.0243L23.956 16.1415L28.8885 4.67433H30.9556V18.1442Z" fill="#556061"/>
<path d="M30.9556 18.1442H29.6138V6.18531L24.5189 18.1442H23.3939L18.2994 6.18531V18.1442H16.9576V4.67433H19.0243L23.956 16.1415L28.8885 4.67433H30.9556V18.1442Z" stroke="#556061" stroke-width="0.666667" stroke-miterlimit="10"/>
<path d="M42.2154 12.4106L39.6399 6.23981L37.0289 12.4106H42.2154ZM46.132 18.1442H44.6815L42.7407 13.6304H36.5036L34.5628 18.1442H33.1124L38.8966 4.67433H40.3838L46.132 18.1442Z" fill="#556061"/>
<path d="M42.2154 12.4106L39.6399 6.23981L37.0289 12.4106H42.2154ZM46.132 18.1442H44.6815L42.7407 13.6304H36.5036L34.5628 18.1442H33.1124L38.8966 4.67433H40.3838L46.132 18.1442Z" stroke="#556061" stroke-width="0.666667" stroke-miterlimit="10"/>
<path d="M55.8334 8.71531C55.8334 7.9142 55.5916 7.2656 55.1074 6.76788C54.5398 6.18531 53.6937 5.89418 52.5699 5.89418H49.6507V11.5191H52.5699C53.6818 11.5191 54.522 11.2276 55.0901 10.6449C55.5858 10.1472 55.8334 9.50453 55.8334 8.71531ZM57.1757 8.71531C57.1757 9.84385 56.8308 10.7662 56.1415 11.4823C55.3317 12.3198 54.1349 12.7385 52.5509 12.7385H49.6507V18.1442H48.3085V4.67433H52.5509C54.3035 4.67433 55.5676 5.15426 56.3411 6.1122C56.8972 6.79275 57.1757 7.65988 57.1757 8.71531Z" fill="#556061"/>
<path d="M55.8334 8.71531C55.8334 7.9142 55.5916 7.2656 55.1074 6.76788C54.5398 6.18531 53.6937 5.89418 52.5699 5.89418H49.6507V11.5191H52.5699C53.6818 11.5191 54.522 11.2276 55.0901 10.6449C55.5858 10.1472 55.8334 9.50453 55.8334 8.71531V8.71531ZM57.1757 8.71531C57.1757 9.84385 56.8308 10.7662 56.1415 11.4823C55.3317 12.3198 54.1349 12.7385 52.5509 12.7385H49.6507V18.1442H48.3085V4.67433H52.5509C54.3035 4.67433 55.5676 5.15426 56.3411 6.1122C56.8972 6.79275 57.1757 7.65988 57.1757 8.71531V8.71531Z" stroke="#556061" stroke-width="0.666667" stroke-miterlimit="10"/>
<path d="M65.9338 5.89418H62.8685V18.1442H61.5275V5.89418H58.4634V4.67433H65.9338V5.89418Z" fill="#556061"/>
<path d="M65.9338 5.89418H62.8685V18.1442H61.5275V5.89418H58.4634V4.67433H65.9338V5.89418Z" stroke="#556061" stroke-width="0.666667" stroke-miterlimit="10"/>
<path d="M80.33 11.3362C80.33 9.67439 79.7829 8.31242 78.6888 7.24983C77.5945 6.18844 76.2258 5.65795 74.5815 5.65795C72.9374 5.65795 71.5628 6.20695 70.4567 7.30514C69.3507 8.40323 68.7977 9.78381 68.7977 11.4456C68.7977 13.1209 69.348 14.4923 70.4481 15.56C71.5478 16.6274 72.9256 17.1618 74.5815 17.1618C76.2258 17.1618 77.5945 16.6127 78.6888 15.5146C79.7829 14.4161 80.33 13.0241 80.33 11.3362ZM81.6723 11.3362C81.6723 13.3508 80.9917 15.0288 79.6321 16.3698C78.2721 17.7105 76.5826 18.3812 74.5641 18.3812C72.5574 18.3812 70.8703 17.7255 69.5047 16.4152C68.1393 15.1046 67.4559 13.4487 67.4559 11.4456C67.4559 9.43106 68.136 7.7606 69.496 6.43093C70.8557 5.10218 72.5456 4.43811 74.5641 4.43811C76.5826 4.43811 78.2721 5.09025 79.6321 6.39463C80.9917 7.69891 81.6723 9.34613 81.6723 11.3362Z" fill="#556061"/>
<path d="M80.33 11.3362C80.33 9.67438 79.7829 8.31242 78.6888 7.24983C77.5945 6.18844 76.2258 5.65795 74.5815 5.65795C72.9374 5.65795 71.5628 6.20695 70.4567 7.30514C69.3507 8.40323 68.7977 9.78381 68.7977 11.4456C68.7977 13.1209 69.348 14.4923 70.4481 15.56C71.5478 16.6274 72.9256 17.1618 74.5815 17.1618C76.2258 17.1618 77.5945 16.6127 78.6888 15.5146C79.7829 14.4161 80.33 13.0241 80.33 11.3362V11.3362ZM81.6723 11.3362C81.6723 13.3508 80.9917 15.0288 79.6321 16.3698C78.2721 17.7105 76.5826 18.3812 74.5641 18.3812C72.5574 18.3812 70.8703 17.7255 69.5047 16.4152C68.1393 15.1046 67.4559 13.4487 67.4559 11.4456C67.4559 9.43106 68.136 7.7606 69.496 6.43093C70.8557 5.10218 72.5456 4.43811 74.5641 4.43811C76.5826 4.43811 78.2721 5.09025 79.6321 6.39463C80.9917 7.69891 81.6723 9.34613 81.6723 11.3362Z" stroke="#556061" stroke-width="0.666667" stroke-miterlimit="10"/>
<path d="M95.6156 18.1442H94.1474L89.4508 6.36692L84.7185 18.1442H83.249L88.8155 4.67433H90.0859L95.6156 18.1442Z" fill="#556061"/>
<path d="M95.6156 18.1442H94.1474L89.4508 6.36692L84.7185 18.1442H83.249L88.8155 4.67433H90.0859L95.6156 18.1442Z" stroke="#556061" stroke-width="0.666667" stroke-miterlimit="10"/>
<path d="M103.776 2.97355H102.434V1.65328H103.776V2.97355ZM100.621 2.97355H99.2787V1.65328H100.621V2.97355ZM105.118 18.1442H97.7559V4.67433H105.118V5.89417H99.0982V10.7543H104.919V11.9741H99.0982V16.9248H105.118V18.1442Z" fill="#556061"/>
<path d="M103.776 2.97355H102.434V1.65328H103.776V2.97355ZM100.621 2.97355H99.2787V1.65328H100.621V2.97355ZM105.118 18.1442H97.7559V4.67433H105.118V5.89417H99.0982V10.7543H104.919V11.9741H99.0982V16.9248H105.118V18.1442Z" stroke="#556061" stroke-width="0.666667" stroke-miterlimit="10"/>
<path d="M114.365 5.89418H111.3V18.1442H109.959V5.89418H106.895V4.67433H114.365V5.89418Z" fill="#556061"/>
<path d="M114.365 5.89418H111.3V18.1442H109.959V5.89418H106.895V4.67433H114.365V5.89418Z" stroke="#556061" stroke-width="0.666667" stroke-miterlimit="10"/>
<path d="M124.743 11.0043L130.408 7.83155L139.019 13.7235L128.368 18.4822L124.743 11.0043Z" fill="url(#paint0_linear)"/>
<path d="M166.083 0C166.083 0 163.252 1.39165 162.795 1.60967C150.993 7.24372 128.368 18.4822 128.368 18.4822H146.497L184 0H166.083Z" fill="url(#paint1_linear)"/>
<defs>
<linearGradient id="paint0_linear" x1="124.743" y1="13.1569" x2="139.019" y2="13.1569" gradientUnits="userSpaceOnUse">
<stop stop-color="#51ABE4"/>
<stop offset="0.00368702" stop-color="#51ABE4"/>
<stop offset="1" stop-color="#2367BA"/>
</linearGradient>
<linearGradient id="paint1_linear" x1="128.368" y1="9.2411" x2="184" y2="9.2411" gradientUnits="userSpaceOnUse">
<stop stop-color="#51ABE4"/>
<stop offset="1" stop-color="#2367BA"/>
</linearGradient>
</defs>
</svg>
