<svg width="170" height="19" viewBox="0 0 170 19" fill="none" xmlns="http://www.w3.org/2000/svg">
<path d="M66.6091 13.9449C65.9658 15.119 65.0981 16.035 64.0047 16.6949C62.9103 17.3548 61.6901 17.6846 60.343 17.6846C58.3042 17.6846 56.599 17.0365 55.2273 15.7415C53.8189 14.4106 53.1143 12.7283 53.1143 10.6946C53.1143 8.70968 53.7967 7.06088 55.1627 5.74809C56.5283 4.4338 58.2182 3.77781 60.232 3.77781C61.6533 3.77781 62.9164 4.09814 64.0228 4.74031C65.1284 5.38177 65.9723 6.28275 66.5526 7.44505H64.9224C64.5389 6.8639 64.0874 6.38633 63.5685 6.01093C62.6297 5.33326 61.5233 4.99447 60.2501 4.99447C58.5574 4.99447 57.1736 5.54799 56.0983 6.65512C55.0234 7.76336 54.4864 9.10958 54.4864 10.6946C54.4864 12.3284 55.0513 13.6995 56.1819 14.8065C57.3125 15.9136 58.6996 16.4684 60.343 16.4684C61.2334 16.4684 62.0733 16.2682 62.8639 15.8683C63.7422 15.433 64.4455 14.792 64.9778 13.9449H66.6091Z" fill="#556061"/>
<path d="M66.6091 13.9449C65.9658 15.119 65.0981 16.035 64.0047 16.6949C62.9103 17.3548 61.6901 17.6846 60.343 17.6846C58.3042 17.6846 56.599 17.0365 55.2273 15.7415C53.8189 14.4106 53.1143 12.7283 53.1143 10.6946C53.1143 8.70968 53.7967 7.06088 55.1627 5.74809C56.5283 4.4338 58.2182 3.77781 60.232 3.77781C61.6533 3.77781 62.9164 4.09814 64.0228 4.74031C65.1284 5.38177 65.9723 6.28275 66.5526 7.44505H64.9224C64.5389 6.8639 64.0874 6.38633 63.5685 6.01093C62.6297 5.33326 61.5233 4.99447 60.2501 4.99447C58.5574 4.99447 57.1736 5.54799 56.0983 6.65512C55.0234 7.76336 54.4864 9.10958 54.4864 10.6946C54.4864 12.3284 55.0513 13.6995 56.1819 14.8065C57.3125 15.9136 58.6996 16.4684 60.343 16.4684C61.2334 16.4684 62.0733 16.2682 62.8639 15.8683C63.7422 15.433 64.4455 14.792 64.9778 13.9449H66.6091Z" stroke="white" stroke-width="0.666667" stroke-miterlimit="10"/>
<path d="M83.736 17.4478H82.3643V5.52003L77.1562 17.4478H76.0062L70.7984 5.52003V17.4478H69.4268V4.01299H71.5394L76.5808 15.4503L81.623 4.01299H83.736V17.4478Z" fill="#556061"/>
<path d="M83.736 17.4478H82.3643V5.52003L77.1562 17.4478H76.0062L70.7984 5.52003V17.4478H69.4268V4.01299H71.5394L76.5808 15.4503L81.623 4.01299H83.736V17.4478Z" stroke="white" stroke-width="0.666667" stroke-miterlimit="10"/>
<path d="M95.2458 11.7291L92.6131 5.57439L89.944 11.7291H95.2458ZM99.2495 17.4478H97.7668L95.7829 12.9457H89.407L87.4231 17.4478H85.9404L91.8532 4.01299H93.3735L99.2495 17.4478Z" fill="#556061"/>
<path d="M95.2458 11.7291L92.6131 5.57439L89.944 11.7291H95.2458ZM99.2495 17.4478H97.7668L95.7829 12.9457H89.407L87.4231 17.4478H85.9404L91.8532 4.01299H93.3735L99.2495 17.4478Z" stroke="white" stroke-width="0.666667" stroke-miterlimit="10"/>
<path d="M109.167 8.04343C109.167 7.24442 108.92 6.59751 108.425 6.10108C107.844 5.52003 106.98 5.22966 105.831 5.22966H102.847V10.8399H105.831C106.967 10.8399 107.826 10.5491 108.407 9.96803C108.914 9.47161 109.167 8.8306 109.167 8.04343ZM110.539 8.04343C110.539 9.16903 110.186 10.089 109.482 10.8033C108.654 11.6385 107.431 12.0561 105.811 12.0561H102.847V17.4478H101.475V4.01299H105.811C107.603 4.01299 108.895 4.49167 109.686 5.44711C110.254 6.12589 110.539 6.99076 110.539 8.04343Z" fill="#556061"/>
<path d="M109.167 8.04343C109.167 7.24442 108.92 6.59751 108.425 6.10108C107.844 5.52003 106.98 5.22966 105.831 5.22966H102.847V10.8399H105.831C106.967 10.8399 107.826 10.5491 108.407 9.96803C108.914 9.47161 109.167 8.8306 109.167 8.04343V8.04343ZM110.539 8.04343C110.539 9.16903 110.186 10.089 109.482 10.8033C108.654 11.6385 107.431 12.0561 105.811 12.0561H102.847V17.4478H101.475V4.01299H105.811C107.603 4.01299 108.895 4.49167 109.686 5.44711C110.254 6.12589 110.539 6.99076 110.539 8.04343V8.04343Z" stroke="white" stroke-width="0.666667" stroke-miterlimit="10"/>
<path d="M119.492 5.22966H116.359V17.4478H114.988V5.22966H111.855V4.01299H119.492V5.22966Z" fill="#556061"/>
<path d="M119.492 5.22966H116.359V17.4478H114.988V5.22966H111.855V4.01299H119.492V5.22966Z" stroke="white" stroke-width="0.666667" stroke-miterlimit="10"/>
<path d="M134.208 10.6579C134.208 9.00044 133.649 7.64203 132.531 6.5822C131.412 5.52358 130.013 4.99447 128.332 4.99447C126.651 4.99447 125.246 5.54204 124.115 6.63737C122.985 7.7326 122.419 9.10958 122.419 10.7671C122.419 12.4379 122.982 13.8058 124.107 14.8708C125.231 15.9353 126.639 16.4684 128.332 16.4684C130.013 16.4684 131.412 15.9207 132.531 14.8254C133.649 13.7298 134.208 12.3414 134.208 10.6579ZM135.58 10.6579C135.58 12.6672 134.885 14.3409 133.495 15.6784C132.105 17.0156 130.378 17.6846 128.314 17.6846C126.263 17.6846 124.538 17.0306 123.142 15.7237C121.746 14.4165 121.048 12.7649 121.048 10.7671C121.048 8.75775 121.743 7.09164 123.133 5.76544C124.523 4.44015 126.251 3.77781 128.314 3.77781C130.378 3.77781 132.105 4.42825 133.495 5.72923C134.885 7.03011 135.58 8.67304 135.58 10.6579Z" fill="#556061"/>
<path d="M134.208 10.6579C134.208 9.00044 133.649 7.64203 132.531 6.5822C131.412 5.52358 130.013 4.99447 128.332 4.99447C126.651 4.99447 125.246 5.54204 124.115 6.63737C122.985 7.7326 122.419 9.10958 122.419 10.7671C122.419 12.4379 122.982 13.8058 124.107 14.8708C125.231 15.9353 126.639 16.4684 128.332 16.4684C130.013 16.4684 131.412 15.9207 132.531 14.8254C133.649 13.7298 134.208 12.3414 134.208 10.6579V10.6579ZM135.58 10.6579C135.58 12.6672 134.885 14.3409 133.495 15.6784C132.105 17.0156 130.378 17.6846 128.314 17.6846C126.263 17.6846 124.538 17.0306 123.142 15.7237C121.746 14.4165 121.048 12.7649 121.048 10.7671C121.048 8.75775 121.743 7.09164 123.133 5.76544C124.523 4.44015 126.251 3.77781 128.314 3.77781C130.378 3.77781 132.105 4.42825 133.495 5.72923C134.885 7.03011 135.58 8.67304 135.58 10.6579Z" stroke="white" stroke-width="0.666667" stroke-miterlimit="10"/>
<path d="M149.834 17.4478H148.333L143.532 5.70117L138.695 17.4478H137.192L142.883 4.01299H144.181L149.834 17.4478Z" fill="#556061"/>
<path d="M149.834 17.4478H148.333L143.532 5.70117L138.695 17.4478H137.192L142.883 4.01299H144.181L149.834 17.4478Z" stroke="white" stroke-width="0.666667" stroke-miterlimit="10"/>
<path d="M158.178 2.89874H156.806V1.00006H158.178V2.89874ZM154.951 2.89874H153.579V1.00006H154.951V2.89874ZM159.551 17.4507H152.021V4.01372H159.551V5.23058H153.394V10.0789H159.347V11.2957H153.394V16.2343H159.551V17.4507Z" fill="#556061"/>
<path d="M158.178 2.89874H156.806V1.00006H158.178V2.89874ZM154.951 2.89874H153.579V1.00006H154.951V2.89874ZM159.551 17.4507H152.021V4.01372H159.551V5.23058H153.394V10.0789H159.347V11.2957H153.394V16.2343H159.551V17.4507Z" stroke="white" stroke-width="0.666667" stroke-miterlimit="10"/>
<path d="M169 5.22966H165.867V17.4478H164.496V5.22966H161.364V4.01299H169V5.22966Z" fill="#556061"/>
<path d="M169 5.22966H165.867V17.4478H164.496V5.22966H161.364V4.01299H169V5.22966Z" stroke="white" stroke-width="0.666667" stroke-miterlimit="10"/>
<path d="M0 12.2078L4.70828 9.75031L11.8656 14.314L3.0132 18L0 12.2078Z" fill="url(#paint0_linear_16:2120)"/>
<path d="M34.3599 3.68421C34.3599 3.68421 32.0076 4.76214 31.6278 4.93102C21.8185 9.29499 3.01367 18 3.01367 18H18.0813L49.2519 3.68421H34.3599Z" fill="url(#paint1_linear_16:2120)"/>
<defs>
<linearGradient id="paint0_linear_16:2120" x1="-8.4048e-05" y1="13.8752" x2="11.8656" y2="13.8752" gradientUnits="userSpaceOnUse">
<stop stop-color="#51ABE4"/>
<stop offset="0.00368702" stop-color="#51ABE4"/>
<stop offset="1" stop-color="#2367BA"/>
</linearGradient>
<linearGradient id="paint1_linear_16:2120" x1="3.01384" y1="10.8421" x2="49.2521" y2="10.8421" gradientUnits="userSpaceOnUse">
<stop stop-color="#51ABE4"/>
<stop offset="1" stop-color="#2367BA"/>
</linearGradient>
</defs>
</svg>
